<?xml version="1.0" encoding="UTF-8"?>
<svg id="_图层_1" data-name="图层_1" xmlns="http://www.w3.org/2000/svg" version="1.1" viewBox="0 0 1140 1168">
  <!-- Generator: Adobe Illustrator 30.1.0, SVG Export Plug-In . SVG Version: 2.1.1 Build 136)  -->
  <defs>
    <style>
      .st0 {
        fill: #ffae00;
      }
    </style>
  </defs>
  <rect class="st0" x="48.35" y="52.15" width="1036.17" height="1036.17" rx="141.73" ry="141.73"/>
  <g>
    <path d="M772.53,583.07c-12.8-32.57-23.92-65.7,2.29-94.56,27.49-30.28,84.2-50.82,122.67-64.77,16.99-6.16,37.15-13.03,45.94-30.16,6.7-13.07,6.87-27.15,4.6-41.62-3.59-22.85-14.18-52.5-25.19-72.69l-5.03-9.22-17.03.81c-11.98.57-23.8.56-35.83-.2l-15.01-.94-12.95-1.01c-42.08-3.27-70.23-15.75-107.97-31.61l-36.07-15.16c-21.99-9.24-50.76-12.57-74.08-9.04-46.39,7.03-85.61,38.78-111.07,77.05-15.43,23.2-24.98,44.78-29.19,72.66-4.66,30.91.78,64.51,17.26,91.38,8.1,13.21,17.08,24.39,29.29,33.85,14.14,10.96,33.32,19.69,51.82,18.21,29.34-2.35,48.11-29.37,51.5-56.69l4.16-33.6c1.01-8.12,3.11-15.94,7.48-22.54,2.51-3.78,6.18-3.26,9.76-2.19,5.75,1.73,10.25,4.13,13.08,10.04,2.01,4.21,4.49,9.98,4.68,14.89.28,7.34.73,14.52-.22,21.57-3.66,26.97-10.16,53-23.06,76.66-27.9,51.19-85.9,58.92-134.57,31.92-56.36-31.27-82.52-92.39-76.41-156,1.95-20.35,7.23-39.27,14.45-58.42,20.16-53.46,60.9-103.28,110.32-132.47,54.67-32.29,100.44-23.47,156.69-1.87,54.22,20.82,87.82,26.38,146.07,22.95,15.58-.92,30.43-.81,45.66-4.92,2.26-5.38,6.25-9.17,11.39-12.38,15.1-9.43,34.75-6.14,46.6,7.3,16.8,19.06,8.18,40.43,8.65,45.77s1.17,11.98,2.7,16.92l11.15,35.94c6.62,21.33,11.46,42.47,12.22,64.8,1.26,37.29-14.18,63.57-46.46,81.16-10.46,5.7-20.69,10.83-31.83,15.11l-44.03,16.92-25.1,10.04c-16.6,6.64-48.57,23.71-59.26,39.08,1.7,9.19,4.91,17.99,8.65,26.5l15.93,36.25c6.49,14.76,12.69,29,17.57,44.35l9.67,30.41c4.79,15.06,7.79,29.83,10.58,45.47,6.96,39.01,4.68,85.56-3.26,124.44l-5.33,26.1-12,51.93c-.96.19.53,1.5,1.36,1.69l30.14-5.18c6.7-1.15,15.21,1.44,19.03,6.8,10.45,14.67,15.69,32.38.98,46.41-9.28,8.85-21.42,13.14-34.09,15.59-5.32,1.03-10.79,2.29-16.37,2.69-20.27,1.44-45.52.08-64.44-7.72l-8.63-3.56c-6.76-8.21,3.48-42.59,7.3-52.39l11.03-28.29c16.62-42.63,25.14-73.76,29.93-119.64,1.21-11.56,1.82-33.26,1.04-44.86l-.74-11.1c-2.34-35.04-11.38-68.23-23.74-100.85l-6.89-18.18-7.79-19.82Z"/>
    <path d="M684.32,961.37c-3.4,10.33-10.49,17.7-21.27,20.74-9.35,2.64-19.27,4.96-29.13,5.52l-17.99,1.02c-10.34.59-20.14-.53-30.62-.55l-145.26-.23-48.76.23-88.36-.45c-5.9-.03-12.1-.5-17.86-1.17l-16.76-1.96c-16.51-1.93-36.04-7.07-51.45-13.59-30.22-12.79-54.42-34.44-66.58-65.28-13.17-33.42-11.41-73.9-3.18-108.58,6.97-29.38,20.98-67.73,37.94-91.4,7.66-10.69-6.78,74.43-7.13,77.18l-1.3,10.19c-1.12,8.82-2.23,17.13-2.28,26l-.08,15.15c-.18,35.15,16.68,67.02,45.44,87.17,8.89,6.22,17.63,12.72,29.13,13.28,5.92.29,13.45-2.63,17.85-6.86,21.07-20.25,25.07-82.61,32.06-112.32,21.87-92.95,94.05-178.29,182.46-213.84,8.23-3.31,15.73-6.21,23.93-8.2,20.33-4.94,25.09-6.66,47.79-4.95,5.31.4,11.92,3.1,15.88,6.34,4.1,3.35-2.38,16.85-14.47,19.39-11.14,2.34-22.27,3.37-33.06,6.97l-9.98,3.33c-36.64,12.21-74.76,40.67-99.38,70.6-31.56,38.36-53.88,82.61-67.07,130.68-4.5,16.41-7.15,32.26-8.98,49.19s-1.5,33.62,2.83,50.14c.83,3.17,3.73,4.9,6.86,5.45,16.68,2.97,33.06,3.19,49.85,3.99,9.76.46,19.12.36,28.84-.06l28.63-1.23,23.22-1.41c21.31-1.3,42.22-4.27,62.79-9.56,14.61-3.76,24.2-13.77,31.04-26.5,13.25-24.64,15.06-53.87-1.11-77.87-13.67-20.29-36.6-19.21-45.19-37.59-.68-1.46-1.82-4.13-1.63-5.46s2.23-3.37,3.59-4.14c25.06-14.2,56.4,10.61,73.69,27.92,25.15,25.19,34.15,55.45,27.71,90.5l-6.03,32.8c2.91-.12,5.53-.18,8.22-.54l13.12-1.75c6.79-.9,14.61-.93,21.6-.33,17.44,1.51,26.51,23.54,20.42,42.03Z"/>
    <circle cx="726.45" cy="296.86" r="31.16"/>
  </g>
</svg>